# xmcd CD database file
#
# Track frame offsets:
#	150
#	25235
#	59297
#	73952
#	90775
#	116125
#	128232
#	146212
#	174097
#	191750
#
# Disc length: 2930 seconds
#
# Revision: 0
# Processed by: cddbd v1.5.2PL0 Copyright (c) Steve Scherf et al.
# Submitted via: NeoAudio 9.9.9
#
DISCID=8d0b700a
DTITLE=University of Miami Jazz Vocal Ensemble I - Con Alma
DYEAR=1993
DGENRE=Jazz
TTITLE0=I Should Care
TTITLE1=Con Alma
TTITLE2=Born to be Blue
TTITLE3=Close Harmony
TTITLE4=Will You Still Be Mine
TTITLE5=My Romance
TTITLE6=One-Note Samba
TTITLE7=Straight No Chaser
TTITLE8=Keepers of the Groove
TTITLE9=That's All
EXTD=YEAR: 1993
EXTT0=
EXTT1=
EXTT2=
EXTT3=
EXTT4=
EXTT5=
EXTT6=
EXTT7=
EXTT8=
EXTT9=
PLAYORDER=
